<svg width="150" height="150" viewBox="0 0 150 150" fill="none" xmlns="http://www.w3.org/2000/svg">
<path d="M75 150C116.421 150 150 116.421 150 75C150 33.5786 116.421 0 75 0C33.5786 0 0 33.5786 0 75C0 116.421 33.5786 150 75 150Z" fill="#0657F9"/>
<path fill-rule="evenodd" clip-rule="evenodd" d="M70.9336 38.6851V28.3318C70.9394 27.9525 71.0488 27.5821 71.2499 27.2605C71.451 26.9389 71.7361 26.6784 72.0745 26.5071C72.4129 26.3358 72.7917 26.2602 73.17 26.2886C73.5482 26.317 73.9115 26.4481 74.2206 26.668L94.4278 40.864C94.6965 41.0504 94.9161 41.2991 95.0677 41.5888C95.2194 41.8785 95.2986 42.2007 95.2986 42.5277C95.2986 42.8547 95.2194 43.1768 95.0677 43.4666C94.9161 43.7563 94.6965 44.005 94.4278 44.1914L74.2206 58.3874C73.9115 58.6072 73.5482 58.7384 73.17 58.7668C72.7917 58.7951 72.4129 58.7196 72.0745 58.5483C71.7361 58.377 71.451 58.1165 71.2499 57.7949C71.0488 57.4733 70.9394 57.1028 70.9336 56.7236V46.8885C64.7324 47.6766 58.8902 50.2371 54.1079 54.2628C49.3256 58.2884 45.8063 63.6084 43.9722 69.5843C42.1381 75.5603 42.0671 81.9386 43.7676 87.9539C45.4681 93.9693 48.868 99.3663 53.5594 103.497C58.2508 107.629 64.0345 110.319 70.2166 111.245C76.3988 112.171 82.7168 111.294 88.4128 108.718C94.1088 106.143 98.9409 101.979 102.329 96.7263C105.718 91.4733 107.519 85.3542 107.516 79.1031C107.516 78.0256 107.944 76.9923 108.706 76.2305C109.468 75.4686 110.501 75.0406 111.579 75.0406C112.656 75.0406 113.69 75.4686 114.452 76.2305C115.213 76.9923 115.641 78.0256 115.641 79.1031C115.642 86.9639 113.361 94.656 109.077 101.247C104.792 107.837 98.6878 113.043 91.5034 116.233C84.319 119.424 76.3633 120.461 68.6011 119.22C60.8389 117.978 53.6035 114.512 47.7724 109.24C41.9412 103.968 37.7647 97.1181 35.7493 89.52C33.7339 81.9219 33.9662 73.9023 36.4179 66.4336C38.8697 58.9649 43.4357 52.3679 49.5622 47.4425C55.6887 42.5172 63.1125 39.4751 70.9336 38.6851V38.6851Z" fill="white"/>
</svg>
